<svg width="101" height="101" viewBox="0 0 101 101" fill="none" xmlns="http://www.w3.org/2000/svg">
<path d="M86.888 11.2534L55.3457 34.6806L61.1787 20.8589L86.888 11.2534Z" fill="#E2761B" stroke="#E2761B" stroke-linecap="round" stroke-linejoin="round"/>
<path d="M14.0801 11.2534L45.3693 34.9025L39.8216 20.8589L14.0801 11.2534Z" fill="#E4761B" stroke="#E4761B" stroke-linecap="round" stroke-linejoin="round"/>
<path d="M75.5513 65.5583L67.1504 78.4293L85.1253 83.3748L90.2926 65.8437L75.5513 65.5583Z" fill="#E4761B" stroke="#E4761B" stroke-linecap="round" stroke-linejoin="round"/>
<path d="M10.751 65.8437L15.8866 83.3748L33.8611 78.4293L25.4603 65.5583L10.751 65.8437Z" fill="#E4761B" stroke="#E4761B" stroke-linecap="round" stroke-linejoin="round"/>
<path d="M32.8477 43.8105L27.8389 51.387L45.6866 52.1795L45.0526 33.0005L32.8477 43.8105Z" fill="#E4761B" stroke="#E4761B" stroke-linecap="round" stroke-linejoin="round"/>
<path d="M68.1327 43.8107L55.7695 32.7786L55.3574 52.1799L73.1731 51.3873L68.1327 43.8107Z" fill="#E4761B" stroke="#E4761B" stroke-linecap="round" stroke-linejoin="round"/>
<path d="M33.8623 78.4285L44.5773 73.1978L35.3206 65.97L33.8623 78.4285Z" fill="#E4761B" stroke="#E4761B" stroke-linecap="round" stroke-linejoin="round"/>
<path d="M56.3994 73.1978L67.1458 78.4285L65.6558 65.97L56.3994 73.1978Z" fill="#E4761B" stroke="#E4761B" stroke-linecap="round" stroke-linejoin="round"/>
<path d="M67.1403 78.4285L56.3936 73.1978L57.2495 80.2037L57.1544 83.1519L67.1403 78.4285Z" fill="#D7C1B3" stroke="#D7C1B3" stroke-linecap="round" stroke-linejoin="round"/>
<path d="M33.8555 78.4285L43.8413 83.1519L43.7779 80.2037L44.5705 73.1978L33.8555 78.4285Z" fill="#D7C1B3" stroke="#D7C1B3" stroke-linecap="round" stroke-linejoin="round"/>
<path d="M43.9974 61.3422L35.0576 58.711L41.3662 55.8262L43.9974 61.3422Z" fill="#233447" stroke="#233447" stroke-linecap="round" stroke-linejoin="round"/>
<path d="M56.9668 61.3422L59.598 55.8262L65.9382 58.711L56.9668 61.3422Z" fill="#233447" stroke="#233447" stroke-linecap="round" stroke-linejoin="round"/>
<path d="M33.8539 78.429L35.3756 65.5583L25.4531 65.8437L33.8539 78.429Z" fill="#CD6116" stroke="#CD6116" stroke-linecap="round" stroke-linejoin="round"/>
<path d="M65.6211 65.5583L67.1428 78.429L75.5439 65.8437L65.6211 65.5583Z" fill="#CD6116" stroke="#CD6116" stroke-linecap="round" stroke-linejoin="round"/>
<path d="M73.1604 51.3877L55.3447 52.1802L56.9932 61.3419L59.6243 55.8259L65.9644 58.7107L73.1604 51.3877Z" fill="#CD6116" stroke="#CD6116" stroke-linecap="round" stroke-linejoin="round"/>
<path d="M35.0599 58.7107L41.4001 55.8259L43.9996 61.3419L45.6798 52.1802L27.832 51.3877L35.0599 58.7107Z" fill="#CD6116" stroke="#CD6116" stroke-linecap="round" stroke-linejoin="round"/>
<path d="M27.833 51.3877L35.3145 65.9702L35.0609 58.7107L27.833 51.3877Z" fill="#E4751F" stroke="#E4751F" stroke-linecap="round" stroke-linejoin="round"/>
<path d="M65.9694 58.7107L65.6523 65.9702L73.1655 51.3877L65.9694 58.7107Z" fill="#E4751F" stroke="#E4751F" stroke-linecap="round" stroke-linejoin="round"/>
<path d="M45.6831 52.1799L44.0029 61.3416L46.0952 72.1517L46.5707 57.9178L45.6831 52.1799Z" fill="#E4751F" stroke="#E4751F" stroke-linecap="round" stroke-linejoin="round"/>
<path d="M55.3442 52.1799L54.4883 57.8861L54.8687 72.1517L56.9927 61.3416L55.3442 52.1799Z" fill="#E4751F" stroke="#E4751F" stroke-linecap="round" stroke-linejoin="round"/>
<path d="M56.9951 61.3409L54.8711 72.151L56.3927 73.1972L65.6495 65.9693L65.9665 58.7097L56.9951 61.3409Z" fill="#F6851B" stroke="#F6851B" stroke-linecap="round" stroke-linejoin="round"/>
<path d="M35.0576 58.7097L35.3112 65.9693L44.5683 73.1972L46.09 72.151L43.9977 61.3409L35.0576 58.7097Z" fill="#F6851B" stroke="#F6851B" stroke-linecap="round" stroke-linejoin="round"/>
<path d="M57.1556 83.1519L57.2507 80.2037L56.4582 79.5063H44.5069L43.7778 80.2037L43.8412 83.1519L33.8555 78.4285L37.3426 81.2816L44.4118 86.1953H56.5533L63.6542 81.2816L67.1413 78.4285L57.1556 83.1519Z" fill="#C0AD9E" stroke="#C0AD9E" stroke-linecap="round" stroke-linejoin="round"/>
<path d="M56.3911 73.1992L54.8695 72.1531H46.0885L44.5669 73.1992L43.7744 80.2052L44.5035 79.5077H56.4545L57.247 80.2052L56.3911 73.1992Z" fill="#161616" stroke="#161616" stroke-linecap="round" stroke-linejoin="round"/>
<path d="M88.2215 36.2023L90.9161 23.2682L86.8901 11.2534L56.3936 33.8881L68.123 43.8105L84.7027 48.6608L88.3801 44.3812L86.795 43.2399L89.3311 40.9257L87.3656 39.4041L89.9017 37.4703L88.2215 36.2023Z" fill="#763D16" stroke="#763D16" stroke-linecap="round" stroke-linejoin="round"/>
<path d="M10.0791 23.2682L12.7737 36.2023L11.0618 37.4703L13.5979 39.4041L11.6642 40.9257L14.2003 43.2399L12.6152 44.3812L16.2608 48.6608L32.8406 43.8105L44.57 33.8881L14.0735 11.2534L10.0791 23.2682Z" fill="#763D16" stroke="#763D16" stroke-linecap="round" stroke-linejoin="round"/>
<path d="M84.7048 48.6603L68.125 43.8101L73.1655 51.3866L65.6523 65.9692L75.5431 65.8424H90.2842L84.7048 48.6603Z" fill="#F6851B" stroke="#F6851B" stroke-linecap="round" stroke-linejoin="round"/>
<path d="M32.8467 43.8101L16.267 48.6603L10.751 65.8424H25.4603L35.3194 65.9692L27.8379 51.3866L32.8467 43.8101Z" fill="#F6851B" stroke="#F6851B" stroke-linecap="round" stroke-linejoin="round"/>
<path d="M55.3499 52.1799L56.396 33.8885L61.2145 20.8594H39.8164L44.5715 33.8885L45.6811 52.1799L46.0615 57.9495L46.0932 72.1515H54.8743L54.9377 57.9495L55.3499 52.1799Z" fill="#F6851B" stroke="#F6851B" stroke-linecap="round" stroke-linejoin="round"/>
</svg>
